# xmcd
#
# Track frame offsets:
#	150
#	17367
#	32207
#
# Disc length: 606 seconds
#
# Revision: 0
# Processed by: cddbd v1.5.1PL0 Copyright (c) Steve Scherf et al.
# Submitted via: audiograbber 1.83.01
#
DISCID=17025c03
DTITLE=The Living End - Prisoner of Society_MCD
DYEAR=1999
DGENRE=Punk Rock
TTITLE0=Prisoner of Society
TTITLE1=Mr Business Man
TTITLE2=Sleep on it
EXTD=
EXTT0=
EXTT1=
EXTT2=
PLAYORDER=
